<svg xmlns="http://www.w3.org/2000/svg" xml:space="preserve" viewBox="0 0 802.3 441.6" role="img"><title>Bahamas Brokerage Exam Prep (<abbr title="Bahamas Brokerage Exam Prep" aria-label="Bahamas Brokerage Exam Prep"></abbr></title><path d="M66.8 111.8v178l64.5 30.1 64.6-30.1v-178l-64.6 30.1z"/><path d="m131.3 337.5-64.5-30.1-1.6-.7 1.6 3.3 19.6 42.1 12.2 26.3 3.9 8.3 7-3.2 22-10.3 22 10.3 6.7 3.1 3.7-8 12.3-26.3 19.7-42.3 1.5-3.3-1.5.7zM110.4 396.6l20.9 45 21-45.1-20.8-9.8zM195.9 30.1l-35.5-16.6-6.3-2.9L131.3 0 66.8 30.1 61 32.8 29.1 47.7l-6.4 3L0 61.3l22.7 10.6V151h-5.3v42.1h17V151h-5.3V74.9l37.7 17.6 64.5 30.1 64.5-30.1 66.8-31.2-66.7-31.2zM29.1 74.9 22.8 72l6.3-2.9 54.7-25.6 6.3 2.9-61 28.5zM339.7 116.1c10.6 0 19.6 1 27.1 3 7.4 2 13.5 4.7 18.2 8.3 4.7 3.6 8.1 7.9 10.3 13.1 2.1 5.1 3.2 10.9 3.2 17.2 0 3.4-.5 6.8-1.5 10s-2.5 6.2-4.6 9c-2.1 2.8-4.8 5.3-8.1 7.6s-7.3 4.3-11.9 6c10.1 2.5 17.6 6.4 22.5 11.9 4.8 5.5 7.3 12.6 7.3 21.3 0 6.5-1.3 12.6-3.8 18.2s-6.2 10.5-11.1 14.7c-4.9 4.2-10.9 7.5-18.1 9.8-7.2 2.4-15.4 3.5-24.6 3.5h-61.4V116.1h56.5zm-20.9 26.6v38h18.6c3.9 0 7.5-.3 10.6-.8 3.2-.6 5.9-1.5 8.1-3 2.2-1.4 3.9-3.3 5.1-5.8 1.2-2.5 1.7-5.6 1.7-9.3 0-3.7-.5-6.7-1.4-9.1-.9-2.4-2.3-4.4-4.2-5.9-1.9-1.5-4.3-2.5-7.2-3.2-2.9-.6-6.4-.9-10.4-.9h-20.9zm25.1 100.1c4.7 0 8.6-.6 11.5-1.8 3-1.2 5.3-2.7 7-4.6 1.7-1.9 2.8-4 3.5-6.4.6-2.4.9-4.8.9-7.3 0-2.8-.4-5.3-1.1-7.6-.7-2.2-2-4.1-3.8-5.7-1.8-1.5-4.2-2.7-7.1-3.6s-6.7-1.3-11.2-1.3h-24.9v38.3h25.2zM480.8 116.1c10.6 0 19.6 1 27.1 3 7.4 2 13.5 4.7 18.2 8.3 4.7 3.6 8.1 7.9 10.3 13.1 2.1 5.1 3.2 10.9 3.2 17.2 0 3.4-.5 6.8-1.5 10s-2.5 6.2-4.6 9c-2.1 2.8-4.8 5.3-8.1 7.6s-7.3 4.3-11.9 6c10.1 2.5 17.6 6.4 22.5 11.9 4.8 5.5 7.3 12.6 7.3 21.3 0 6.5-1.3 12.6-3.8 18.2s-6.2 10.5-11.1 14.7c-4.9 4.2-10.9 7.5-18.1 9.8-7.2 2.4-15.4 3.5-24.6 3.5h-61.4V116.1h56.5zM460 142.7v38h18.6c3.9 0 7.5-.3 10.6-.8 3.2-.6 5.9-1.5 8.1-3 2.2-1.4 3.9-3.3 5.1-5.8 1.2-2.5 1.7-5.6 1.7-9.3 0-3.7-.5-6.7-1.4-9.1-.9-2.4-2.3-4.4-4.2-5.9-1.9-1.5-4.3-2.5-7.2-3.2-2.9-.6-6.4-.9-10.4-.9H460zm25.1 100.1c4.7 0 8.6-.6 11.5-1.8 3-1.2 5.3-2.7 7-4.6 1.7-1.9 2.8-4 3.5-6.4.6-2.4.9-4.8.9-7.3 0-2.8-.4-5.3-1.1-7.6-.7-2.2-2-4.1-3.8-5.7-1.8-1.5-4.2-2.7-7.1-3.6-3-.8-6.7-1.3-11.2-1.3H460v38.3h25.1zM601.4 143.5v35.8h48.3v26.4h-48.3v36.6h63.1v27.4h-98.9V116.1h98.9v27.4h-63.1zM740.5 116.1c10.8 0 20.1 1.3 27.9 3.8 7.8 2.6 14.2 6.1 19.2 10.6s8.7 9.8 11.1 15.9c2.4 6.1 3.6 12.7 3.6 19.8 0 7.7-1.2 14.7-3.7 21.1-2.5 6.4-6.2 11.9-11.3 16.4-5.1 4.6-11.5 8.1-19.2 10.7-7.8 2.6-17 3.8-27.6 3.8H722v51.3h-35.6V116.1h54.1zm0 75.3c9.3 0 16-2.2 20-6.6 4.1-4.4 6.1-10.6 6.1-18.6 0-3.5-.5-6.7-1.6-9.6-1.1-2.9-2.7-5.4-4.8-7.4-2.1-2.1-4.8-3.7-8.1-4.8-3.3-1.1-7.2-1.7-11.7-1.7H722v48.7h18.5zM290.4 307.3c1.4 0 2.6.1 3.6.4 1 .3 1.8.7 2.5 1.2s1.1 1.1 1.4 1.8c.3.7.5 1.5.5 2.4 0 .5-.1 1.1-.2 1.5-.2.5-.4 1-.8 1.4-.3.4-.8.8-1.3 1.2-.5.3-1.1.6-1.8.9 3.2.6 4.9 2.3 4.9 5.1 0 1-.2 1.8-.5 2.6-.4.8-.9 1.5-1.5 2-.7.6-1.5 1-2.5 1.3-1 .3-2.1.5-3.3.5h-8v-22.3h7zm-4 2.6v7.3h3.8c1.6 0 2.8-.3 3.6-1 .8-.7 1.2-1.5 1.2-2.7 0-1.3-.4-2.2-1.1-2.8-.8-.6-1.9-.9-3.5-.9h-4zm4.7 17c.8 0 1.6-.1 2.1-.3s1.1-.5 1.5-.8c.4-.3.7-.7.8-1.2.2-.5.3-1 .3-1.5 0-1.1-.4-2-1.1-2.6-.8-.6-1.9-1-3.5-1h-4.6v7.4h4.5zM321.3 329.5h-2.5c-.3 0-.5-.1-.7-.2s-.3-.3-.4-.6l-2-5.2h-9.8l-2 5.2c-.1.2-.2.4-.4.5-.2.2-.4.2-.7.2h-2.5l8.9-22.3h3.3l8.8 22.4zm-6.5-8.3-3.3-8.6c-.2-.6-.5-1.3-.7-2.2-.1.4-.2.9-.3 1.2-.1.4-.2.7-.3 1l-3.3 8.6h7.9zM342.3 307.3v22.3H339v-10h-11.6v10h-3.3v-22.3h3.3v9.8H339v-9.8h3.3zM366.2 329.5h-2.5c-.3 0-.5-.1-.7-.2s-.3-.3-.4-.6l-2-5.2h-9.8l-2 5.2c-.1.2-.2.4-.4.5-.2.2-.4.2-.7.2h-2.5l8.9-22.3h3.3l8.8 22.4zm-6.6-8.3-3.3-8.6c-.2-.6-.5-1.3-.7-2.2-.1.4-.2.9-.3 1.2-.1.4-.2.7-.3 1l-3.3 8.6h7.9zM392.3 307.3v22.3h-2.9V313c0-.3 0-.5.1-.8l-7.4 13.6c-.3.5-.7.8-1.2.8h-.5c-.5 0-.9-.3-1.2-.8l-7.5-13.6c.1.6.1 1.1.1 1.6v15.8h-2.9v-22.3h2.4c.3 0 .5 0 .7.1s.3.2.5.5l7.4 13.3c.1.3.3.6.4.9s.2.6.4.9c.2-.6.5-1.2.8-1.8l7.3-13.3c.1-.3.3-.4.4-.5.2-.1.4-.1.7-.1h2.4zM416.2 329.5h-2.5c-.3 0-.5-.1-.7-.2s-.3-.3-.4-.6l-2-5.2h-9.8l-2 5.2c-.1.2-.2.4-.4.5-.2.2-.4.2-.7.2h-2.5l8.9-22.3h3.3l8.8 22.4zm-6.5-8.3-3.3-8.6c-.2-.6-.5-1.3-.7-2.2-.1.4-.2.9-.3 1.2-.1.4-.2.7-.3 1l-3.3 8.6h7.9zM430.5 310.9c-.1.2-.2.3-.3.4-.1.1-.3.1-.4.1-.2 0-.4-.1-.6-.3-.2-.2-.5-.4-.9-.6-.4-.2-.8-.4-1.3-.6-.5-.2-1.1-.3-1.8-.3s-1.2.1-1.7.3c-.5.2-.9.4-1.2.7-.3.3-.6.6-.8 1s-.3.8-.3 1.3c0 .6.2 1.1.5 1.5.3.4.7.7 1.2 1 .5.3 1.1.5 1.7.7.6.2 1.3.4 1.9.6.7.2 1.3.5 1.9.8.6.3 1.2.7 1.7 1.1s.9 1 1.2 1.6c.3.6.5 1.4.5 2.3 0 1-.2 1.9-.5 2.8-.3.9-.8 1.6-1.5 2.2s-1.4 1.1-2.4 1.5c-.9.4-2 .6-3.2.6-.7 0-1.4-.1-2.1-.2-.7-.1-1.3-.3-1.9-.6-.6-.3-1.2-.6-1.7-.9s-1-.8-1.4-1.2l.9-1.6.3-.3c.1-.1.3-.1.4-.1.2 0 .5.1.8.3.3.2.6.5 1.1.8.4.3.9.5 1.5.8.6.2 1.3.3 2.1.3.7 0 1.3-.1 1.8-.3.5-.2 1-.4 1.4-.8.4-.3.6-.7.8-1.2.2-.5.3-1 .3-1.6 0-.7-.1-1.2-.4-1.6-.3-.4-.7-.8-1.2-1s-1.1-.5-1.7-.7c-.6-.2-1.3-.4-1.9-.6-.7-.2-1.3-.5-1.9-.7-.6-.3-1.2-.6-1.7-1.1-.5-.4-.9-1-1.2-1.7s-.4-1.5-.4-2.5c0-.8.2-1.6.5-2.3s.8-1.4 1.4-2c.6-.6 1.3-1 2.2-1.4.9-.3 1.9-.5 3-.5 1.3 0 2.4.2 3.4.6s2 1 2.7 1.7l-.8 1.7zM450.9 307.3c1.4 0 2.6.1 3.6.4 1 .3 1.8.7 2.5 1.2s1.1 1.1 1.4 1.8c.3.7.5 1.5.5 2.4 0 .5-.1 1.1-.2 1.5-.2.5-.4 1-.8 1.4-.3.4-.8.8-1.3 1.2-.5.3-1.1.6-1.8.9 3.2.6 4.9 2.3 4.9 5.1 0 1-.2 1.8-.5 2.6-.4.8-.9 1.5-1.5 2-.7.6-1.5 1-2.5 1.3-1 .3-2.1.5-3.3.5h-8v-22.3h7zm-3.9 2.6v7.3h3.8c1.6 0 2.8-.3 3.6-1 .8-.7 1.2-1.5 1.2-2.7 0-1.3-.4-2.2-1.1-2.8-.8-.6-1.9-.9-3.5-.9h-4zm4.6 17c.8 0 1.6-.1 2.1-.3.6-.2 1.1-.5 1.5-.8.4-.3.7-.7.8-1.2.2-.5.3-1 .3-1.5 0-1.1-.4-2-1.1-2.6s-1.9-1-3.5-1H447v7.4h4.6zM480.5 329.5h-2.9c-.6 0-1-.2-1.3-.7l-5.5-7.7c-.2-.3-.4-.4-.6-.6-.2-.1-.5-.2-.9-.2h-2.2v9.1h-3.3v-22.3h6.4c1.4 0 2.7.1 3.7.4 1 .3 1.9.7 2.6 1.3.7.5 1.2 1.2 1.5 2 .3.8.5 1.6.5 2.6 0 .8-.1 1.5-.4 2.2-.2.7-.6 1.3-1 1.8-.5.5-1 1-1.7 1.4s-1.4.7-2.2.9c.4.2.8.6 1.1 1l6.2 8.8zM470.1 318c.8 0 1.6-.1 2.2-.3.6-.2 1.2-.5 1.6-.9.4-.4.8-.8 1-1.3.2-.5.3-1.1.3-1.7 0-1.3-.4-2.2-1.3-2.9-.8-.7-2.1-1-3.8-1H467v8.1h3.1zM503.8 318.4c0 1.7-.3 3.2-.8 4.6-.5 1.4-1.3 2.6-2.3 3.6-1 1-2.1 1.8-3.5 2.3s-2.9.8-4.5.8-3.1-.3-4.5-.8c-1.4-.6-2.5-1.3-3.5-2.3-1-1-1.7-2.2-2.3-3.6s-.8-2.9-.8-4.6c0-1.7.3-3.2.8-4.6.5-1.4 1.3-2.6 2.3-3.6 1-1 2.1-1.8 3.5-2.4 1.4-.6 2.9-.8 4.5-.8 1.7 0 3.2.3 4.5.8s2.5 1.3 3.5 2.4c1 1 1.7 2.2 2.3 3.6.6 1.4.8 3 .8 4.6zm-3.3 0c0-1.3-.2-2.5-.5-3.6-.4-1.1-.9-1.9-1.5-2.7-.7-.7-1.5-1.3-2.4-1.7-.9-.4-2-.6-3.2-.6-1.2 0-2.2.2-3.2.6-.9.4-1.8 1-2.4 1.7-.7.7-1.2 1.6-1.5 2.7-.4 1.1-.5 2.2-.5 3.6 0 1.3.2 2.5.5 3.6.4 1 .9 1.9 1.5 2.7.7.7 1.5 1.3 2.4 1.7.9.4 2 .6 3.2.6 1.2 0 2.2-.2 3.2-.6.9-.4 1.8-.9 2.4-1.7.7-.7 1.2-1.6 1.5-2.7.3-1.1.5-2.3.5-3.6zM511.3 316.9h1.1c.4 0 .7 0 1-.1.2-.1.5-.3.7-.5l7.1-8.2c.2-.3.5-.5.7-.6.2-.1.5-.2.9-.2h2.8l-8.2 9.5c-.2.3-.4.5-.6.7s-.4.3-.6.4c.6.2 1.1.6 1.5 1.2l8.6 10.5h-3.4c-.1 0-.3-.1-.4-.1-.1-.1-.2-.1-.3-.2-.1-.1-.2-.2-.2-.3l-7.3-8.7-.3-.3c-.1-.1-.2-.2-.4-.2-.1-.1-.3-.1-.5-.1h-1.9v10.1H508v-22.3h3.3v9.4zM542.5 326.9v2.7h-13.8v-22.3h13.8v2.7H532v7.1h8.4v2.6H532v7.3h10.5zM563.3 329.5h-2.9c-.6 0-1-.2-1.3-.7l-5.5-7.7c-.2-.3-.4-.4-.6-.6-.2-.1-.5-.2-.9-.2h-2.2v9.1h-3.3v-22.3h6.4c1.4 0 2.7.1 3.7.4 1 .3 1.9.7 2.6 1.3.7.5 1.2 1.2 1.5 2s.5 1.6.5 2.6c0 .8-.1 1.5-.4 2.2-.2.7-.6 1.3-1 1.8-.5.5-1 1-1.7 1.4-.7.4-1.4.7-2.2.9.4.2.8.6 1.1 1l6.2 8.8zM552.9 318c.8 0 1.6-.1 2.2-.3.6-.2 1.2-.5 1.6-.9.4-.4.8-.8 1-1.3.2-.5.3-1.1.3-1.7 0-1.3-.4-2.2-1.3-2.9-.8-.7-2.1-1-3.8-1h-3.1v8.1h3.1zM584.5 329.5H582c-.3 0-.5-.1-.7-.2-.2-.1-.3-.3-.4-.6l-2-5.2H569l-2 5.2c-.1.2-.2.4-.4.5s-.4.2-.7.2h-2.5l8.9-22.3h3.3l8.9 22.4zm-6.5-8.3-3.3-8.6c-.2-.6-.5-1.3-.7-2.2-.1.4-.2.9-.3 1.2-.1.4-.2.7-.3 1l-3.3 8.6h7.9zM604.8 318.7v8.7c-1.1.8-2.3 1.4-3.6 1.8-1.3.4-2.7.6-4.2.6-1.8 0-3.4-.3-4.9-.8-1.5-.6-2.7-1.3-3.7-2.3-1-1-1.8-2.2-2.4-3.6-.6-1.4-.8-2.9-.8-4.6 0-1.7.3-3.2.8-4.6s1.3-2.6 2.3-3.6 2.2-1.8 3.6-2.3c1.4-.6 3-.8 4.8-.8.9 0 1.7.1 2.5.2s1.5.3 2.1.6c.7.2 1.3.5 1.8.9.6.3 1.1.7 1.5 1.2l-.9 1.5c-.1.2-.3.4-.6.4-.2.1-.5 0-.8-.2-.3-.2-.6-.3-.9-.5-.3-.2-.7-.4-1.2-.6-.5-.2-1-.3-1.6-.4-.6-.1-1.3-.2-2.1-.2-1.2 0-2.3.2-3.3.6-1 .4-1.8 1-2.5 1.7s-1.2 1.6-1.6 2.7-.6 2.2-.6 3.5c0 1.4.2 2.6.6 3.7.4 1.1.9 2 1.7 2.7.7.7 1.6 1.3 2.6 1.7 1 .4 2.2.6 3.4.6.5 0 1 0 1.4-.1.4-.1.8-.1 1.2-.2s.8-.2 1.1-.4.7-.3 1.1-.5v-4.7h-3.3c-.2 0-.4-.1-.5-.2-.1-.1-.2-.3-.2-.5v-1.9h7.2zM623.1 326.9v2.7h-13.8v-22.3h13.8v2.7h-10.5v7.1h8.4v2.6h-8.4v7.3h10.5zM648.8 326.9v2.7H635v-22.3h13.8v2.7h-10.5v7.1h8.4v2.6h-8.4v7.3h10.5zM670.1 329.5h-3.3c-.2 0-.4-.1-.6-.2-.1-.1-.3-.3-.3-.4l-5.8-9.2c-.1.3-.2.5-.3.7l-5.6 8.5c-.1.1-.2.3-.4.4-.1.1-.3.2-.5.2h-3.1l7.6-11.5-7.3-10.8h3.3c.2 0 .4 0 .5.1l.3.3 5.6 8.7c.1-.3.2-.5.3-.7l5.3-7.9c.1-.2.2-.3.3-.4.1-.1.3-.1.4-.1h3.1l-7.3 10.7 7.8 11.6zM691.5 329.5H689c-.3 0-.5-.1-.7-.2-.2-.1-.3-.3-.4-.6l-2-5.2H676l-2 5.2c-.1.2-.2.4-.4.5s-.4.2-.7.2h-2.5l8.9-22.3h3.3l8.9 22.4zm-6.5-8.3-3.3-8.6c-.2-.6-.5-1.3-.7-2.2-.1.4-.2.9-.3 1.2-.1.4-.2.7-.3 1l-3.3 8.6h7.9zM717.7 307.3v22.3h-2.9V313c0-.3 0-.5.1-.8l-7.4 13.6c-.3.5-.7.8-1.2.8h-.5c-.5 0-.9-.3-1.2-.8l-7.5-13.6c.1.6.1 1.1.1 1.6v15.8h-2.9v-22.3h2.4c.3 0 .5 0 .7.1.2.1.3.2.5.5l7.4 13.3c.1.3.3.6.4.9s.2.6.4.9c.2-.6.5-1.2.8-1.8l7.3-13.3c.1-.3.3-.4.4-.5s.4-.1.7-.1h2.4zM737.7 307.3c1.4 0 2.7.2 3.7.5 1.1.3 1.9.8 2.6 1.4s1.2 1.3 1.5 2.2c.3.9.5 1.8.5 2.9 0 1-.2 2-.5 2.9-.4.9-.9 1.6-1.6 2.3-.7.6-1.6 1.1-2.6 1.5-1 .3-2.3.5-3.6.5h-3.4v8.2H731v-22.3h6.7zm0 11.4c.8 0 1.6-.1 2.2-.3.6-.2 1.2-.5 1.6-.9.4-.4.8-.9 1-1.4s.3-1.2.3-1.8c0-1.4-.4-2.4-1.3-3.2-.8-.8-2.1-1.2-3.8-1.2h-3.4v8.9h3.4zM766.4 329.5h-2.9c-.6 0-1-.2-1.3-.7l-5.5-7.7c-.2-.3-.4-.4-.6-.6-.2-.1-.5-.2-.9-.2H753v9.1h-3.3v-22.3h6.4c1.4 0 2.7.1 3.7.4 1 .3 1.9.7 2.6 1.3.7.5 1.2 1.2 1.5 2s.5 1.6.5 2.6c0 .8-.1 1.5-.4 2.2-.2.7-.6 1.3-1 1.8-.5.5-1 1-1.7 1.4-.7.4-1.4.7-2.2.9.4.2.8.6 1.1 1l6.2 8.8zM756.1 318c.8 0 1.6-.1 2.2-.3.6-.2 1.2-.5 1.6-.9.4-.4.8-.8 1-1.3.2-.5.3-1.1.3-1.7 0-1.3-.4-2.2-1.3-2.9-.8-.7-2.1-1-3.8-1H753v8.1h3.1zM783.1 326.9v2.7h-13.8v-22.3h13.8v2.7h-10.5v7.1h8.4v2.6h-8.4v7.3h10.5zM793.9 307.3c1.4 0 2.7.2 3.7.5 1.1.3 1.9.8 2.6 1.4s1.2 1.3 1.5 2.2c.3.9.5 1.8.5 2.9 0 1-.2 2-.5 2.9-.4.9-.9 1.6-1.6 2.3-.7.6-1.6 1.1-2.6 1.5-1 .3-2.3.5-3.6.5h-3.4v8.2h-3.3v-22.3h6.7zm0 11.4c.8 0 1.6-.1 2.2-.3.6-.2 1.2-.5 1.6-.9.4-.4.8-.9 1-1.4s.3-1.2.3-1.8c0-1.4-.4-2.4-1.3-3.2-.8-.8-2.1-1.2-3.8-1.2h-3.4v8.9h3.4z"/></svg>